<?xml version="1.0" encoding="UTF-8"?>
<svg width="48" height="48" viewBox="0 0 48 48" xmlns="http://www.w3.org/2000/svg">
  <g fill="#f59d16" fill-rule="evenodd">
    <path d="M24,35.3 C17.8,35.3 12.7,30.2 12.7,24 C12.7,17.8 17.8,12.7 24,12.7 C30.2,12.7 35.3,17.8 35.3,24 C35.3,30.2 30.2,35.3 24,35.3 L24,35.3 L24,35.3 Z M24,15.1 C19.1,15.1 15.1,19.1 15.1,24 C15.1,28.9 19.1,32.9 24,32.9 C28.9,32.9 32.9,28.9 32.9,24 C32.9,19.1 28.9,15.1 24,15.1 L24,15.1 L24,15.1 Z"/>
    <path d="M27.4,47.9 L20.6,47.9 L18.7,42.1 C17.4,41.7 16.2,41.2 15,40.6 L9.5,43.4 L4.7,38.6 L7.5,33.1 C6.9,31.9 6.3,30.7 6,29.4 L0.2,27.5 L0.2,20.7 L6,18.8 C6.4,17.5 6.9,16.3 7.5,15.1 L4.7,9.6 L9.5,4.8 L15,7.6 C16.2,7 17.4,6.4 18.7,6.1 L20.6,0.3 L27.4,0.3 L29.3,6.1 C30.6,6.5 31.8,7 33,7.6 L38.5,4.8 L43.3,9.6 L40.5,15.1 C41.1,16.3 41.7,17.5 42,18.8 L47.8,20.7 L47.8,27.5 L42,29.4 C41.6,30.7 41.1,31.9 40.5,33.1 L43.3,38.6 L38.5,43.4 L33,40.6 C31.8,41.2 30.6,41.8 29.3,42.1 L27.4,47.9 L27.4,47.9 L27.4,47.9 Z M22.3,45.6 L25.7,45.6 L27.5,40.2 L28.1,40 C29.6,39.6 31,39 32.4,38.2 L33,37.9 L38.1,40.5 L40.5,38.1 L37.9,33 L38.2,32.4 C39,31.1 39.6,29.6 40,28.1 L40.2,27.5 L45.6,25.7 L45.6,22.3 L40.2,20.5 L40,19.9 C39.6,18.4 39,16.9 38.2,15.6 L37.9,15 L40.5,9.9 L38.1,7.5 L33,10.1 L32.4,9.8 C31.1,9 29.6,8.4 28.1,8 L27.5,7.8 L25.7,2.4 L22.3,2.4 L20.5,7.8 L19.9,8 C18.4,8.4 17,9 15.6,9.8 L15,10.1 L9.9,7.5 L7.5,9.9 L10.1,15 L9.8,15.6 C9,16.9 8.4,18.4 8,19.9 L7.8,20.5 L2.4,22.3 L2.4,25.7 L7.8,27.5 L8,28.1 C8.4,29.6 9,31.1 9.8,32.4 L10.1,33 L7.5,38.1 L9.9,40.5 L15,37.9 L15.6,38.2 C16.9,39 18.4,39.6 19.9,40 L20.5,40.2 L22.3,45.6 L22.3,45.6 L22.3,45.6 Z"/>
  </g>
</svg>
