<?xml version="1.0" encoding="UTF-8"?>
<svg width="48" height="48" viewBox="0 0 48 48" xmlns="http://www.w3.org/2000/svg">
  <g fill="#DA4453" fill-rule="evenodd">
    <path d="M24.1,47.9 C10.9,47.9 0.2,37.2 0.2,24 C0.2,10.8 10.9,0.1 24.1,0.1 C37.3,0.1 48,10.8 48,24 C48,37.1 37.3,47.9 24.1,47.9 L24.1,47.9 L24.1,47.9 Z M24.1,2.6 C12.4,2.6 2.8,12.2 2.8,23.9 C2.8,35.6 12.4,45.2 24.1,45.2 C35.8,45.2 45.4,35.6 45.4,23.9 C45.4,12.2 35.8,2.6 24.1,2.6 L24.1,2.6 L24.1,2.6 Z"/>
    <path d="M13.7 36.2L11.8 34.3 34.4 11.7 36.3 13.6 13.7 36.2"/>
    <path d="M34.4 36.2L11.8 13.6 13.7 11.7 36.3 34.3 34.4 36.2"/>
  </g>
</svg>
