<?xml version="1.0" encoding="UTF-8"?>
<svg width="40" height="115" viewBox="0 0 40 115" xmlns="http://www.w3.org/2000/svg">
  <g fill="#FFF" fill-rule="evenodd">
    <path d="M27.102,90.63 L30.474,77.041 L37.939,46.953 C39.269,41.593 36.001,36.17 30.641,34.84 L29.67,34.599 C29.018,34.437 28.367,34.347 27.721,34.316 L27.729,34.117 C27.729,34.117 27.568,34.189 27.292,34.314 C24.22,34.303 19.731,37.284 19.731,37.284 C11.011,43.363 -0.923,51.425 0.845,55.265 C3.523,61.081 16.593,45.778 13.463,58.396 L10.091,71.984 L2.626,102.072 C1.296,107.433 4.13,112.748 9.49,114.078 L10.461,114.319 C11.113,114.48 11.764,114.572 12.411,114.601 L12.402,114.8 C12.402,114.8 12.564,114.729 12.84,114.603 C15.912,114.615 20.401,111.633 20.401,111.633 C29.121,105.554 41.272,97.546 39.504,93.705 C36.824,87.89 23.972,103.247 27.102,90.63 L27.102,90.63 Z"/>
    <circle cx="25.727" cy="14.217" r="14"/>
  </g>
</svg>
