<?xml version="1.0" encoding="UTF-8"?>
<svg xmlns="http://www.w3.org/2000/svg" width="48" height="48" viewBox="0 0 48 48">
  <g fill="#8CC152" fill-rule="evenodd">
    <path d="M24,47.4 C11.1,47.4 0.6,36.9 0.6,24 C0.6,11.1 11.1,0.6 24,0.6 C36.9,0.6 47.4,11.1 47.4,24 C47.4,36.9 36.9,47.4 24,47.4 L24,47.4 L24,47.4 Z M24,3.1 C12.5,3.1 3.1,12.5 3.1,24 C3.1,35.5 12.5,44.9 24,44.9 C35.5,44.9 44.9,35.5 44.9,24 C44.9,12.5 35.5,3.1 24,3.1 L24,3.1 L24,3.1 Z"/>
    <path d="M21.2 34.1L9.3 22.1 11.1 20.3 21.2 30.5 36.9 14.8 38.7 16.6 21.2 34.1"/>
  </g>
</svg>
